<svg width="32" height="32" viewBox="0 0 32 32" fill="none" xmlns="http://www.w3.org/2000/svg">
<circle cx="14" cy="14" r="14" fill="#A75E92"/>
<path d="M16.2708 7.12195C17.1417 7.12195 17.8542 6.41951 17.8542 5.56098C17.8542 4.70244 17.1417 4 16.2708 4C15.4 4 14.6875 4.70244 14.6875 5.56098C14.6875 6.41951 15.4 7.12195 16.2708 7.12195ZM7.95833 12.1951C5.74167 12.1951 4 13.9122 4 16.0976C4 18.2829 5.74167 20 7.95833 20C10.175 20 11.9167 18.2829 11.9167 16.0976C11.9167 13.9122 10.175 12.1951 7.95833 12.1951ZM7.95833 18.8293C6.45417 18.8293 5.1875 17.5805 5.1875 16.0976C5.1875 14.6146 6.45417 13.3659 7.95833 13.3659C9.4625 13.3659 10.7292 14.6146 10.7292 16.0976C10.7292 17.5805 9.4625 18.8293 7.95833 18.8293ZM12.55 11.0244L14.45 9.15122L15.0833 9.77561C16.1125 10.7902 17.4583 11.4146 19.1208 11.4146V9.85366C17.9333 9.85366 16.9833 9.38537 16.2708 8.68293L14.7667 7.2C14.3708 6.8878 13.975 6.73171 13.5 6.73171C13.025 6.73171 12.6292 6.8878 12.3917 7.2L10.175 9.38537C9.85833 9.69756 9.7 10.0878 9.7 10.478C9.7 10.9463 9.85833 11.3366 10.175 11.5707L12.7083 13.7561V17.6585H14.2917V12.8195L12.55 11.0244ZM19.0417 12.1951C16.825 12.1951 15.0833 13.9122 15.0833 16.0976C15.0833 18.2829 16.825 20 19.0417 20C21.2583 20 23 18.2829 23 16.0976C23 13.9122 21.2583 12.1951 19.0417 12.1951ZM19.0417 18.8293C17.5375 18.8293 16.2708 17.5805 16.2708 16.0976C16.2708 14.6146 17.5375 13.3659 19.0417 13.3659C20.5458 13.3659 21.8125 14.6146 21.8125 16.0976C21.8125 17.5805 20.5458 18.8293 19.0417 18.8293Z" fill="white"/>
</svg>

