<svg width="22" height="18" viewBox="0 0 22 18" fill="none" xmlns="http://www.w3.org/2000/svg">
<path d="M4.5 9H3V4H1V2H7V4H5V6.795L14.813 4.166L14.233 2H11V-6.94912e-07H14.978C15.2019 -0.00493989 15.4209 0.0654017 15.6001 0.199756C15.7792 0.33411 15.9081 0.524702 15.966 0.740999L17.519 6.537L15.587 7.054L15.331 6.098L4.5 9ZM4 18C2.93913 18 1.92172 17.5786 1.17157 16.8284C0.421427 16.0783 0 15.0609 0 14C0 12.9391 0.421427 11.9217 1.17157 11.1716C1.92172 10.4214 2.93913 10 4 10C5.06087 10 6.07828 10.4214 6.82843 11.1716C7.57857 11.9217 8 12.9391 8 14C8 15.0609 7.57857 16.0783 6.82843 16.8284C6.07828 17.5786 5.06087 18 4 18V18ZM4 15C4.26522 15 4.51957 14.8946 4.70711 14.7071C4.89464 14.5196 5 14.2652 5 14C5 13.7348 4.89464 13.4804 4.70711 13.2929C4.51957 13.1054 4.26522 13 4 13C3.73478 13 3.48043 13.1054 3.29289 13.2929C3.10536 13.4804 3 13.7348 3 14C3 14.2652 3.10536 14.5196 3.29289 14.7071C3.48043 14.8946 3.73478 15 4 15ZM17 18C15.6739 18 14.4021 17.4732 13.4645 16.5355C12.5268 15.5979 12 14.3261 12 13C12 11.6739 12.5268 10.4021 13.4645 9.46447C14.4021 8.52678 15.6739 8 17 8C18.3261 8 19.5979 8.52678 20.5355 9.46447C21.4732 10.4021 22 11.6739 22 13C22 14.3261 21.4732 15.5979 20.5355 16.5355C19.5979 17.4732 18.3261 18 17 18ZM17 14C17.2652 14 17.5196 13.8946 17.7071 13.7071C17.8946 13.5196 18 13.2652 18 13C18 12.7348 17.8946 12.4804 17.7071 12.2929C17.5196 12.1054 17.2652 12 17 12C16.7348 12 16.4804 12.1054 16.2929 12.2929C16.1054 12.4804 16 12.7348 16 13C16 13.2652 16.1054 13.5196 16.2929 13.7071C16.4804 13.8946 16.7348 14 17 14Z" fill="black"/>
</svg>
